<svg xmlns="http://www.w3.org/2000/svg" width="217" height="46" viewBox="0 0 217 46" version="1.1"><path d="M 0 23 L 0 46 10.750 45.961 C 21.244 45.923, 21.417 45.886, 18 44.406 C 7.822 39.997, 1.943 27.418, 4.984 16.556 C 6.570 10.894, 12.195 4.270, 17.444 1.886 L 21.500 0.044 10.750 0.022 L 0 0 0 23 M 38 1.958 C 51.719 9.288, 55.241 27.072, 45.183 38.227 C 43.158 40.474, 39.700 43.132, 37.500 44.134 C 33.595 45.913, 35.686 45.957, 125.250 45.978 L 217 46 217 23 L 217 0 125.750 0.044 C 36.021 0.088, 34.558 0.120, 38 1.958 M 21.271 12.353 L 15.042 16.500 15.042 23 L 15.042 29.500 21.375 33.660 L 27.708 37.819 33.854 33.780 L 40 29.741 40 23.004 C 40 16.322, 39.969 16.245, 36.250 13.802 C 26.814 7.603, 28.205 7.737, 21.271 12.353 M 122 12.776 L 122 16.553 118.096 16.181 C 112.376 15.635, 110 18.348, 110 25.427 C 110 30.100, 110.367 31.143, 112.635 32.927 C 115.305 35.028, 119.455 35.690, 120.397 34.167 C 120.680 33.708, 122.282 33.535, 123.956 33.780 L 127 34.227 127 21.613 L 127 9 124.500 9 C 122.275 9, 122 9.415, 122 12.776 M 131.389 10.430 C 130.393 13.025, 131.788 15.169, 134.246 14.820 C 135.898 14.585, 136.500 13.833, 136.500 12 C 136.500 10.167, 135.898 9.415, 134.246 9.180 C 132.893 8.988, 131.750 9.488, 131.389 10.430 M 62 22 L 62 34 64.500 34 C 66.912 34, 67.003 33.763, 67.078 27.250 L 67.156 20.500 69.407 27 C 71.300 32.467, 72.057 33.548, 74.172 33.801 C 76.437 34.073, 76.941 33.429, 79.265 27.301 L 81.845 20.500 81.922 27.250 C 81.997 33.763, 82.088 34, 84.500 34 L 87 34 87 22 L 87 10 83.583 10 C 80.183 10, 80.153 10.040, 77.311 18.567 L 74.456 27.133 71.666 18.567 C 68.880 10.013, 68.871 10, 65.438 10 L 62 10 62 22 M 146 11.223 C 144.625 11.940, 142.713 14.097, 141.752 16.014 C 136.033 27.416, 146.192 39.089, 156.979 33.511 C 159.913 31.993, 161.630 28.828, 160.506 27.009 C 159.467 25.329, 156.559 25.875, 155.232 28 C 152.324 32.656, 146 28.652, 146 22.155 C 146 16.186, 151.744 12.577, 155 16.500 C 156.599 18.426, 158.417 18.407, 160.045 16.445 C 163.311 12.511, 151.760 8.215, 146 11.223 M 25 17.500 C 25 19.500, 24.500 20, 22.500 20 C 20.389 20, 20 20.467, 20 23 C 20 25.533, 20.389 26, 22.500 26 C 24.500 26, 25 26.500, 25 28.500 C 25 30.500, 25.500 31, 27.500 31 C 29.500 31, 30 30.500, 30 28.500 C 30 26.500, 30.500 26, 32.500 26 C 34.611 26, 35 25.533, 35 23 C 35 20.467, 34.611 20, 32.500 20 C 30.500 20, 30 19.500, 30 17.500 C 30 15.500, 29.500 15, 27.500 15 C 25.500 15, 25 15.500, 25 17.500 M 93.174 18.314 C 90.403 21.265, 90.169 28.761, 92.750 31.920 C 95.154 34.861, 101.231 35.734, 104.481 33.605 C 105.866 32.697, 107 31.337, 107 30.584 C 107 28.781, 103.949 27.651, 102.633 28.967 C 101.157 30.443, 98.446 30.242, 97.043 28.552 C 96.022 27.321, 96.714 27.059, 101.671 26.802 L 107.500 26.500 107.345 23.184 C 107.121 18.370, 104.539 16, 99.519 16 C 96.453 16, 94.773 16.613, 93.174 18.314 M 131 25 L 131 34 134 34 L 137 34 137 25 L 137 16 134 16 L 131 16 131 25 M 164.750 17.392 C 162.718 18.935, 162.546 20.146, 164.135 21.735 C 164.981 22.581, 165.869 22.477, 167.627 21.325 C 168.924 20.475, 170.727 20.065, 171.635 20.414 C 173.804 21.246, 172.676 22.264, 168.184 23.528 C 162.064 25.249, 160.529 31.917, 165.709 34.277 C 167.441 35.066, 168.946 35.081, 170.939 34.329 C 172.736 33.651, 174.342 33.612, 175.429 34.220 C 176.360 34.741, 177.769 34.919, 178.561 34.615 C 180.176 33.995, 180.556 30, 179 30 C 178.450 30, 178 27.595, 178 24.655 C 178 20.747, 177.508 18.865, 176.171 17.655 C 173.971 15.664, 167.231 15.509, 164.750 17.392 M 182 25.100 C 182 33.927, 182.021 34, 184.500 34 C 186.820 34, 187 33.654, 187 29.191 C 187 23.950, 188.393 21.359, 191.500 20.824 C 192.636 20.628, 193.632 19.555, 193.806 18.340 C 194.091 16.355, 193.674 16.200, 188.056 16.200 L 182 16.200 182 25.100 M 197.736 17.250 C 193.738 20.286, 193.295 29.147, 196.975 32.477 C 199.737 34.977, 205.521 35.544, 208.481 33.605 C 209.866 32.697, 211 31.337, 211 30.584 C 211 28.707, 208.041 27.721, 206.428 29.060 C 204.772 30.434, 200.793 29.913, 200.245 28.250 C 199.949 27.350, 201.397 27, 205.417 27 L 211 27 211 23.155 C 211 20.700, 210.339 18.712, 209.171 17.655 C 207.002 15.692, 200.109 15.448, 197.736 17.250 M 97.036 21.457 C 95.927 22.793, 96.185 23, 98.961 23 C 101.081 23, 102.026 22.577, 101.750 21.750 C 101.126 19.873, 98.486 19.709, 97.036 21.457 M 116.515 21.628 C 113.113 25.030, 116.803 32.068, 120.416 29.070 C 122.659 27.208, 122.448 22.310, 120.069 21.037 C 118.604 20.253, 117.748 20.395, 116.515 21.628 M 201.036 21.457 C 199.927 22.793, 200.185 23, 202.961 23 C 205.081 23, 206.026 22.577, 205.750 21.750 C 205.126 19.873, 202.486 19.709, 201.036 21.457 M 170.250 26.706 C 167.994 27.140, 167.196 29.385, 168.919 30.450 C 169.925 31.072, 173 28.419, 173 26.929 C 173 26.418, 172.887 26.061, 172.750 26.136 C 172.613 26.211, 171.488 26.467, 170.250 26.706" stroke="none" fill="#ffffff" fill-rule="evenodd"/><path d="M 19.625 1.408 C 11.009 4.615, 4.987 13.400, 5.022 22.710 C 5.050 29.988, 7.443 35.378, 12.787 40.196 C 27.263 53.248, 50.450 42.540, 50.265 22.888 C 50.182 14.093, 45.459 6.357, 37.732 2.361 C 33.428 0.136, 24.330 -0.343, 19.625 1.408 M 20.271 12.315 L 14.042 16.500 14.030 23 L 14.017 29.500 20.170 33.500 C 23.554 35.700, 26.716 37.655, 27.196 37.845 C 27.676 38.035, 30.979 36.294, 34.535 33.977 L 41 29.765 41 23 L 41 16.235 34.680 12.117 C 31.204 9.853, 27.942 8.029, 27.430 8.065 C 26.919 8.101, 23.697 10.013, 20.271 12.315 M 123 13.427 C 123 17.716, 121.907 19.277, 120.500 17 C 119.523 15.419, 115.425 15.834, 113.080 17.750 C 110.375 19.961, 109.347 26.009, 110.998 29.996 C 112.466 33.540, 116.038 34.802, 120.176 33.240 C 121.768 32.639, 123 32.572, 123 33.087 C 123 33.589, 123.914 34, 125.031 34 C 126.976 34, 127.050 33.487, 126.781 21.762 C 126.535 11.033, 126.284 9.483, 124.750 9.189 C 123.290 8.909, 123 9.610, 123 13.427 M 132.036 10.456 C 130.537 12.263, 131.500 14, 134 14 C 135.035 14, 136.172 13.530, 136.527 12.956 C 137.190 11.883, 135.348 9, 134 9 C 133.585 9, 132.701 9.655, 132.036 10.456 M 148.255 11.214 C 143.412 12.469, 141 16.292, 141 22.712 C 141 27.393, 141.408 28.562, 143.923 31.077 C 147.960 35.114, 154.842 35.248, 158.724 31.367 C 161.240 28.851, 161.275 28.674, 159.511 27.384 C 157.909 26.213, 157.480 26.297, 156.275 28.017 C 154.686 30.287, 148.845 30.762, 147.260 28.750 C 144.024 24.641, 145.209 17.190, 149.424 15.143 C 151.924 13.929, 152.514 14.004, 155.018 15.855 C 157.463 17.663, 157.973 17.737, 159.047 16.444 C 160.035 15.252, 159.944 14.595, 158.578 13.086 C 156.541 10.835, 152.526 10.107, 148.255 11.214 M 63 22.500 C 63 33.333, 63.116 34, 65 34 C 66.810 34, 67.007 33.310, 67.069 26.750 L 67.138 19.500 69.819 26.786 C 72.033 32.802, 72.849 34.022, 74.500 33.786 C 75.998 33.572, 77.174 31.618, 79.187 26 L 81.875 18.500 81.937 26.250 C 81.994 33.312, 82.177 34, 84 34 C 85.884 34, 86 33.333, 86 22.500 L 86 11 83.206 11 C 80.578 11, 80.244 11.518, 77.567 19.737 L 74.722 28.473 71.632 19.737 C 68.755 11.599, 68.353 11, 65.772 11 L 63 11 63 22.500 M 25 18.500 C 25 20.500, 24.500 21, 22.500 21 C 20.667 21, 20 21.533, 20 23 C 20 24.467, 20.667 25, 22.500 25 C 24.500 25, 25 25.500, 25 27.500 C 25 29.500, 25.500 30, 27.500 30 C 29.500 30, 30 29.500, 30 27.500 C 30 25.500, 30.500 25, 32.500 25 C 34.333 25, 35 24.467, 35 23 C 35 21.533, 34.333 21, 32.500 21 C 30.500 21, 30 20.500, 30 18.500 C 30 16.500, 29.500 16, 27.500 16 C 25.500 16, 25 16.500, 25 18.500 M 95.364 17.170 C 90.617 19.468, 89.533 27.624, 93.455 31.545 C 96.606 34.696, 102.837 34.943, 105.481 32.021 C 107.062 30.274, 107.089 29.971, 105.714 29.444 C 104.857 29.115, 103.221 29.346, 102.078 29.958 C 99.622 31.273, 96 29.787, 96 27.465 C 96 26.356, 97.336 26, 101.500 26 C 106.837 26, 107 25.919, 106.985 23.250 C 106.966 19.941, 106.201 18.668, 103.316 17.150 C 100.694 15.770, 98.243 15.776, 95.364 17.170 M 166.210 17.239 C 163.756 18.420, 163.626 21.775, 166.059 21.101 C 170.793 19.789, 173 19.842, 173 21.268 C 173 22.204, 171.325 23.184, 168.516 23.892 C 164.939 24.792, 163.899 25.555, 163.369 27.665 C 163.004 29.120, 163.155 31.027, 163.704 31.905 C 164.915 33.841, 170.614 34.565, 172.476 33.020 C 173.404 32.250, 174.023 32.229, 174.470 32.951 C 175.441 34.522, 180 34.238, 180 32.607 C 180 31.841, 179.325 30.955, 178.500 30.638 C 177.420 30.224, 177 28.534, 177 24.603 C 177 20.973, 176.473 18.616, 175.429 17.571 C 173.630 15.773, 169.557 15.626, 166.210 17.239 M 189.185 16.864 C 188.462 17.323, 186.775 17.488, 185.435 17.232 C 183.007 16.768, 183 16.793, 183 25.383 C 183 33.333, 183.155 34, 185 34 C 186.776 34, 187 33.333, 187 28.035 C 187 23.073, 187.340 21.889, 189.021 20.989 C 190.132 20.394, 191.482 20.180, 192.021 20.513 C 192.562 20.848, 193 19.974, 193 18.559 C 193 15.970, 191.586 15.342, 189.185 16.864 M 199.315 17.007 C 194.703 18.865, 193.466 26.781, 197.073 31.365 C 199.739 34.755, 206.675 35.122, 209.481 32.021 C 211.062 30.274, 211.089 29.971, 209.714 29.444 C 208.857 29.115, 207.221 29.346, 206.078 29.958 C 203.622 31.273, 200 29.787, 200 27.465 C 200 26.356, 201.336 26, 205.500 26 C 210.726 26, 211 25.873, 211 23.455 C 211 22.055, 209.895 19.805, 208.545 18.455 C 206.017 15.926, 203.125 15.472, 199.315 17.007 M 132 25.500 C 132 33.333, 132.157 34, 134 34 C 135.843 34, 136 33.333, 136 25.500 C 136 17.667, 135.843 17, 134 17 C 132.157 17, 132 17.667, 132 25.500 M 96.713 20.621 C 95.163 22.170, 96.165 23, 99.583 23 C 102.002 23, 103.033 22.594, 102.756 21.750 C 102.297 20.352, 97.818 19.515, 96.713 20.621 M 115.667 20.667 C 115.300 21.033, 115 23.043, 115 25.131 C 115 31, 120.052 32.625, 122.040 27.395 C 123.377 23.879, 121.620 20, 118.691 20 C 117.394 20, 116.033 20.300, 115.667 20.667 M 200.667 20.667 C 199.176 22.158, 200.187 23, 203.469 23 C 206.141 23, 206.805 22.656, 206.362 21.500 C 205.783 19.991, 201.909 19.424, 200.667 20.667 M 167.965 27.542 C 166.381 29.450, 167.929 31.351, 170.644 30.834 C 173.278 30.331, 173.769 26, 171.192 26 C 170.121 26, 168.669 26.694, 167.965 27.542" stroke="none" fill="#43beec" fill-rule="evenodd"/><path d="M 32.813 0.683 C 33.534 0.972, 34.397 0.936, 34.729 0.604 C 35.061 0.272, 34.471 0.036, 33.417 0.079 C 32.252 0.127, 32.015 0.364, 32.813 0.683 M 10.946 6.750 L 7.500 10.500 11.250 7.054 C 14.740 3.846, 15.460 3, 14.696 3 C 14.529 3, 12.842 4.688, 10.946 6.750 M 40 3.378 C 40 3.585, 40.788 4.373, 41.750 5.128 C 43.336 6.371, 43.371 6.336, 42.128 4.750 C 40.821 3.084, 40 2.555, 40 3.378 M 46.511 10.377 C 47.457 11.820, 48.419 13, 48.650 13 C 49.374 13, 47.045 9.146, 45.891 8.433 C 45.287 8.059, 45.566 8.934, 46.511 10.377 M 122.175 12.809 C 122.048 15.933, 121.656 16.924, 120.750 16.412 C 119.758 15.852, 119.754 15.981, 120.733 17.037 C 122.561 19.008, 123.172 17.732, 122.737 12.854 L 122.349 8.500 122.175 12.809 M 62.215 22.250 L 62.430 34.500 62.746 22.811 L 63.062 11.122 66.281 10.721 C 69.412 10.331, 69.397 10.316, 65.750 10.160 L 62 10 62.215 22.250 M 82.719 10.721 L 85.938 11.122 86.254 22.811 L 86.570 34.500 86.785 22.250 L 87 10 83.250 10.160 C 79.603 10.316, 79.588 10.331, 82.719 10.721 M 148.813 10.683 C 149.534 10.972, 150.397 10.936, 150.729 10.604 C 151.061 10.272, 150.471 10.036, 149.417 10.079 C 148.252 10.127, 148.015 10.364, 148.813 10.683 M 152.813 10.683 C 153.534 10.972, 154.397 10.936, 154.729 10.604 C 155.061 10.272, 154.471 10.036, 153.417 10.079 C 152.252 10.127, 152.015 10.364, 152.813 10.683 M 6.459 12.067 C 6.096 12.653, 6.014 13.348, 6.276 13.610 C 6.538 13.872, 7.019 13.392, 7.345 12.543 C 8.021 10.781, 7.445 10.471, 6.459 12.067 M 143.405 13.250 L 141.500 15.500 144 13.511 C 145.375 12.417, 146.688 11.404, 146.917 11.261 C 147.146 11.117, 146.878 11, 146.322 11 C 145.765 11, 144.453 12.012, 143.405 13.250 M 158.425 12.731 C 160.001 14.631, 160.078 15.225, 158.943 16.731 C 157.671 18.419, 157.697 18.419, 159.523 16.746 C 161.401 15.024, 161.392 14.951, 159.005 12.746 L 156.574 10.500 158.425 12.731 M 131.655 14.250 C 131.909 14.662, 132.965 15, 134 15 C 135.035 15, 136.091 14.662, 136.345 14.250 C 136.600 13.838, 135.545 13.500, 134 13.500 C 132.455 13.500, 131.400 13.838, 131.655 14.250 M 26.269 15.693 C 27.242 15.947, 28.592 15.930, 29.269 15.656 C 29.946 15.382, 29.150 15.175, 27.500 15.195 C 25.850 15.215, 25.296 15.439, 26.269 15.693 M 39.500 23 C 39.500 27.295, 39.837 30.600, 40.250 30.345 C 41.228 29.741, 41.228 16.259, 40.250 15.655 C 39.837 15.400, 39.500 18.705, 39.500 23 M 146.872 16.750 C 145.629 18.336, 145.664 18.371, 147.250 17.128 C 148.916 15.821, 149.445 15, 148.622 15 C 148.415 15, 147.627 15.787, 146.872 16.750 M 154 15.378 C 154 15.585, 154.787 16.373, 155.750 17.128 C 157.336 18.371, 157.371 18.336, 156.128 16.750 C 154.821 15.084, 154 14.555, 154 15.378 M 14.336 23 C 14.336 27.125, 14.513 28.813, 14.728 26.750 C 14.944 24.688, 14.944 21.313, 14.728 19.250 C 14.513 17.188, 14.336 18.875, 14.336 23 M 94.507 16.989 C 94.157 17.555, 94.558 17.723, 95.448 17.382 C 97.180 16.717, 97.497 16, 96.059 16 C 95.541 16, 94.843 16.445, 94.507 16.989 M 102 16.393 C 102 16.609, 102.698 17.054, 103.552 17.382 C 104.442 17.723, 104.843 17.555, 104.493 16.989 C 103.906 16.038, 102 15.583, 102 16.393 M 131.206 25.250 L 131.411 34.500 131.745 25.750 C 132.044 17.900, 132.276 17, 134 17 C 135.724 17, 135.956 17.900, 136.255 25.750 L 136.589 34.500 136.794 25.250 L 137 16 134 16 L 131 16 131.206 25.250 M 165.507 16.989 C 165.157 17.555, 165.558 17.723, 166.448 17.382 C 168.180 16.717, 168.497 16, 167.059 16 C 166.541 16, 165.843 16.445, 165.507 16.989 M 182.206 25.250 L 182.411 34.500 182.746 25.641 C 183.078 16.870, 183.105 16.787, 185.510 17.247 C 186.846 17.502, 187.702 17.326, 187.411 16.856 C 187.120 16.385, 185.784 16, 184.441 16 C 182.014 16, 182.001 16.053, 182.206 25.250 M 193.158 18 C 193.158 19.375, 193.385 19.938, 193.662 19.250 C 193.940 18.563, 193.940 17.438, 193.662 16.750 C 193.385 16.063, 193.158 16.625, 193.158 18 M 208.286 18.301 C 209.504 19.566, 210.685 20.469, 210.911 20.307 C 211.494 19.888, 207.856 16, 206.881 16 C 206.436 16, 207.068 17.035, 208.286 18.301 M 4.286 22.500 C 4.294 25.250, 4.488 26.256, 4.718 24.736 C 4.947 23.216, 4.941 20.966, 4.704 19.736 C 4.467 18.506, 4.279 19.750, 4.286 22.500 M 50.158 20 C 50.158 21.375, 50.385 21.938, 50.662 21.250 C 50.940 20.563, 50.940 19.438, 50.662 18.750 C 50.385 18.063, 50.158 18.625, 50.158 20 M 163.063 19.128 C 162.974 21.429, 165.581 23.488, 166.565 21.894 C 167.039 21.128, 166.886 20.952, 166.146 21.410 C 165.446 21.842, 164.613 21.206, 164.055 19.814 C 163.444 18.291, 163.105 18.056, 163.063 19.128 M 177 24.266 C 177.312 28.060, 177.979 30.438, 178.775 30.596 C 179.476 30.736, 179.589 30.621, 179.025 30.342 C 178.461 30.062, 178 27.422, 178 24.476 C 178 21.529, 177.662 18.909, 177.250 18.654 C 176.838 18.398, 176.725 20.924, 177 24.266 M 91.459 20.067 C 91.096 20.653, 91.014 21.348, 91.276 21.610 C 91.538 21.872, 92.019 21.392, 92.345 20.543 C 93.021 18.781, 92.445 18.471, 91.459 20.067 M 140.252 22.500 C 140.263 24.700, 140.468 25.482, 140.707 24.238 C 140.946 22.994, 140.937 21.194, 140.687 20.238 C 140.437 19.282, 140.241 20.300, 140.252 22.500 M 21.269 20.693 C 22.242 20.947, 23.592 20.930, 24.269 20.656 C 24.946 20.382, 24.150 20.175, 22.500 20.195 C 20.850 20.215, 20.296 20.439, 21.269 20.693 M 31.269 20.693 C 32.242 20.947, 33.592 20.930, 34.269 20.656 C 34.946 20.382, 34.150 20.175, 32.500 20.195 C 30.850 20.215, 30.296 20.439, 31.269 20.693 M 101.564 21.293 C 101.940 22.279, 102.499 22.834, 102.807 22.526 C 103.115 22.219, 102.808 21.412, 102.124 20.733 C 101.136 19.753, 101.022 19.868, 101.564 21.293 M 115.459 21.067 C 114.433 22.727, 115.354 22.957, 116.789 21.399 C 117.499 20.630, 117.638 20, 117.098 20 C 116.559 20, 115.821 20.480, 115.459 21.067 M 119 20.393 C 119 20.609, 119.698 21.054, 120.552 21.382 C 121.442 21.723, 121.843 21.555, 121.493 20.989 C 120.906 20.038, 119 19.583, 119 20.393 M 145.079 22.583 C 145.127 23.748, 145.364 23.985, 145.683 23.188 C 145.972 22.466, 145.936 21.603, 145.604 21.271 C 145.272 20.939, 145.036 21.529, 145.079 22.583 M 187.459 22.067 C 187.096 22.653, 187.014 23.348, 187.276 23.610 C 187.538 23.872, 188.019 23.392, 188.345 22.543 C 189.021 20.781, 188.445 20.471, 187.459 22.067 M 107.079 23.700 C 107.009 25.659, 106.369 25.940, 101.250 26.261 L 95.500 26.622 101.281 26.811 C 107.153 27.003, 108.921 25.889, 107.673 22.783 C 107.390 22.077, 107.122 22.490, 107.079 23.700 M 194.158 25 C 194.158 26.375, 194.385 26.938, 194.662 26.250 C 194.940 25.563, 194.940 24.438, 194.662 23.750 C 194.385 23.063, 194.158 23.625, 194.158 25 M 21.269 25.693 C 22.242 25.947, 23.592 25.930, 24.269 25.656 C 24.946 25.382, 24.150 25.175, 22.500 25.195 C 20.850 25.215, 20.296 25.439, 21.269 25.693 M 31.269 25.693 C 32.242 25.947, 33.592 25.930, 34.269 25.656 C 34.946 25.382, 34.150 25.175, 32.500 25.195 C 30.850 25.215, 30.296 25.439, 31.269 25.693 M 50.079 26.583 C 50.127 27.748, 50.364 27.985, 50.683 27.188 C 50.972 26.466, 50.936 25.603, 50.604 25.271 C 50.272 24.939, 50.036 25.529, 50.079 26.583 M 146 26.878 C 146 27.886, 148.892 30.483, 149.357 29.893 C 149.528 29.677, 148.842 28.712, 147.833 27.750 C 146.825 26.788, 146 26.395, 146 26.878 M 155.100 28.295 C 153.835 30.402, 153.857 30.423, 155.579 28.774 C 156.570 27.824, 157.166 26.832, 156.903 26.569 C 156.640 26.306, 155.829 27.083, 155.100 28.295 M 158 26.393 C 158 26.609, 158.698 27.054, 159.552 27.382 C 160.442 27.723, 160.843 27.555, 160.493 26.989 C 159.906 26.038, 158 25.583, 158 26.393 M 169.813 26.683 C 170.534 26.972, 171.397 26.936, 171.729 26.604 C 172.061 26.272, 171.471 26.036, 170.417 26.079 C 169.252 26.127, 169.015 26.364, 169.813 26.683 M 202.768 26.725 C 204.565 26.947, 207.265 26.943, 208.768 26.715 C 210.271 26.486, 208.800 26.304, 205.500 26.310 C 202.200 26.315, 200.971 26.502, 202.768 26.725 M 102.507 28.989 C 102.157 29.555, 102.558 29.723, 103.448 29.382 C 105.180 28.717, 105.497 28, 104.059 28 C 103.541 28, 102.843 28.445, 102.507 28.989 M 167 28.941 C 167 29.459, 167.445 30.157, 167.989 30.493 C 168.555 30.843, 168.723 30.442, 168.382 29.552 C 167.717 27.820, 167 27.503, 167 28.941 M 171.211 29.601 C 170.501 30.370, 170.362 31, 170.902 31 C 171.940 31, 173.443 29.098, 172.850 28.534 C 172.658 28.351, 171.920 28.831, 171.211 29.601 M 206.507 28.989 C 206.157 29.555, 206.558 29.723, 207.448 29.382 C 209.180 28.717, 209.497 28, 208.059 28 C 207.541 28, 206.843 28.445, 206.507 28.989 M 110 29.941 C 110 30.459, 110.445 31.157, 110.989 31.493 C 111.555 31.843, 111.723 31.442, 111.382 30.552 C 110.717 28.820, 110 28.503, 110 29.941 M 195 29.678 C 195 30.235, 196.012 31.547, 197.250 32.595 L 199.500 34.500 197.511 32 C 196.417 30.625, 195.404 29.313, 195.261 29.083 C 195.117 28.854, 195 29.122, 195 29.678 M 26.269 30.693 C 27.242 30.947, 28.592 30.930, 29.269 30.656 C 29.946 30.382, 29.150 30.175, 27.500 30.195 C 25.850 30.215, 25.296 30.439, 26.269 30.693 M 142 30.378 C 142 30.585, 142.787 31.373, 143.750 32.128 C 145.336 33.371, 145.371 33.336, 144.128 31.750 C 142.821 30.084, 142 29.555, 142 30.378 M 93.226 32.579 C 94.176 33.570, 95.168 34.166, 95.431 33.903 C 95.694 33.640, 94.917 32.829, 93.705 32.100 C 91.598 30.835, 91.577 30.857, 93.226 32.579 M 104.872 32.750 C 103.629 34.336, 103.664 34.371, 105.250 33.128 C 106.916 31.821, 107.445 31, 106.622 31 C 106.415 31, 105.627 31.788, 104.872 32.750 M 208.872 32.750 C 207.629 34.336, 207.664 34.371, 209.250 33.128 C 210.213 32.373, 211 31.585, 211 31.378 C 211 30.555, 210.179 31.084, 208.872 32.750 M 172.603 32.833 C 172.320 33.292, 172.723 33.667, 173.500 33.667 C 174.277 33.667, 174.680 33.292, 174.397 32.833 C 174.114 32.375, 173.710 32, 173.500 32 C 173.290 32, 172.886 32.375, 172.603 32.833 M 46.511 35.623 C 45.566 37.066, 45.287 37.941, 45.891 37.567 C 47.045 36.854, 49.374 33, 48.650 33 C 48.419 33, 47.457 34.180, 46.511 35.623 M 117.500 34 L 114.500 34.763 117.191 34.882 C 118.671 34.947, 120.160 34.550, 120.500 34 C 120.840 33.450, 120.979 33.053, 120.809 33.118 C 120.639 33.183, 119.150 33.580, 117.500 34 M 98.250 34.689 C 99.213 34.941, 100.787 34.941, 101.750 34.689 C 102.713 34.438, 101.925 34.232, 100 34.232 C 98.075 34.232, 97.287 34.438, 98.250 34.689 M 149.762 34.707 C 151.006 34.946, 152.806 34.937, 153.762 34.687 C 154.718 34.437, 153.700 34.241, 151.500 34.252 C 149.300 34.263, 148.518 34.468, 149.762 34.707 M 167.269 34.693 C 168.242 34.947, 169.592 34.930, 170.269 34.656 C 170.946 34.382, 170.150 34.175, 168.500 34.195 C 166.850 34.215, 166.296 34.439, 167.269 34.693 M 176.813 34.683 C 177.534 34.972, 178.397 34.936, 178.729 34.604 C 179.061 34.272, 178.471 34.036, 177.417 34.079 C 176.252 34.127, 176.015 34.364, 176.813 34.683 M 202.250 34.689 C 203.213 34.941, 204.787 34.941, 205.750 34.689 C 206.713 34.438, 205.925 34.232, 204 34.232 C 202.075 34.232, 201.287 34.438, 202.250 34.689 M 11 39.500 C 12.866 41.425, 14.617 43, 14.892 43 C 15.167 43, 13.866 41.425, 12 39.500 C 10.134 37.575, 8.383 36, 8.108 36 C 7.833 36, 9.134 37.575, 11 39.500 M 40.872 41.750 C 39.629 43.336, 39.664 43.371, 41.250 42.128 C 42.212 41.373, 43 40.585, 43 40.378 C 43 39.555, 42.179 40.084, 40.872 41.750" stroke="none" fill="#fbfbfc" fill-rule="evenodd"/></svg>